<svg xmlns="http://www.w3.org/2000/svg" viewBox="0 0 512 512" width="512" height="512">
  <defs>
    <linearGradient id="grad" x1="0%" y1="0%" x2="100%" y2="100%">
      <stop offset="0%" style="stop-color:#0b0f19;stop-opacity:1" />
      <stop offset="100%" style="stop-color:#161e2e;stop-opacity:1" />
    </linearGradient>
    <filter id="glow">
      <feGaussianBlur stdDeviation="8" result="coloredBlur"/>
      <feMerge>
        <feMergeNode in="coloredBlur"/>
        <feMergeNode in="SourceGraphic"/>
      </feMerge>
    </filter>
  </defs>
  <rect width="100%" height="100%" rx="128" fill="url(#grad)" />
  <circle cx="256" cy="256" r="160" fill="none" stroke="#fbbf24" stroke-width="12" filter="url(#glow)" />
  <!-- A sleek brain/network/graph representation for Danari AI -->
  <path d="M256 160 L336 220 L304 320 L208 320 L176 220 Z" fill="none" stroke="#06b6d4" stroke-width="8" stroke-linejoin="round" />
  <circle cx="256" cy="160" r="14" fill="#fbbf24" />
  <circle cx="336" cy="220" r="14" fill="#fbbf24" />
  <circle cx="304" cy="320" r="14" fill="#fbbf24" />
  <circle cx="208" cy="320" r="14" fill="#fbbf24" />
  <circle cx="176" cy="220" r="14" fill="#fbbf24" />
  <circle cx="256" cy="248" r="24" fill="#06b6d4" filter="url(#glow)" />
  <line x1="256" y1="160" x2="256" y2="248" stroke="#fbbf24" stroke-width="4" />
  <line x1="336" y1="220" x2="256" y2="248" stroke="#fbbf24" stroke-width="4" />
  <line x1="304" y1="320" x2="256" y2="248" stroke="#fbbf24" stroke-width="4" />
  <line x1="208" y1="320" x2="256" y2="248" stroke="#fbbf24" stroke-width="4" />
  <line x1="176" y1="220" x2="256" y2="248" stroke="#fbbf24" stroke-width="4" />
</svg>
